#N canvas 90 139 1087 726 10;
#X obj 273 258 sinebank;
#X msg 20 26 48 52 55 59;
#X obj 280 177 v_midi2cv~;
#X text -15 19 Cmaj7;
#X text -17 107 Fmaj7;
#X text -4 129 G7;
#X msg 21 133 55 59 62 65;
#X text -16 52 Dm7;
#X msg 21 55 50 53 57 60;
#X msg 21 80 52 55 59 62;
#X text -16 77 Em7;
#X text -17 157 Am7;
#X msg 20 160 57 60 64 67;
#X msg 21 107 53 57 60 64;
#X obj 390 259 2env+2vca;
#X obj -11 209 inlet;
#X obj 74 350 unpack f f f f;
#X obj 74 383 +;
#X obj 99 400 +;
#X obj 127 417 +;
#X obj 155 435 +;
#X obj -10 346 * 12;
#X msg -54 301 2;
#X msg -204 301 -2;
#X msg -167 301 -1;
#X msg -129 301 0;
#X msg -90 301 1;
#X obj 97 474 pack f f f f;
#X obj 97 505 print output;
#X floatatom -10 379 5 0 0 0 - - -, f 5;
#X floatatom -10 312 5 0 0 0 - - -, f 5;
#X obj 410 204 v_gate~;
#X obj -102 60 + 1;
#X floatatom -141 83 5 0 0 0 - - -, f 5;
#X obj -12 246 t b f;
#X obj 531 254 polyphon;
#X obj 275 477 x_vca-mixer;
#X obj 506 655 outlet~;
#X obj 598 508 vu 15 120 empty empty -1 -8 0 10 -66577 -1 1 0;
#X obj 594 480 unsig~;
#X obj -103 84 sel 1 2 3 4 5 6;
#X obj -103 31 shuffle 5;
#X obj -9 287 - 1;
#X obj 529 72 inlet;
#X floatatom 502 174 5 0 0 0 - - -, f 5;
#X obj 530 213 v_cv~;
#X obj 679 179 print volume;
#X text 46 210 comment;
#X obj 184 247 t b l b;
#X text 115 113 SOUND ENGINE;
#N canvas 274 89 1068 542 triple-vca 0;
#X obj 105 105 cnv 15 90 190 empty empty VCA/MIXER 7 28 1 14 -233017
-66577 0;
#X obj 245 61 inlet~;
#X obj 245 342 *~;
#X obj 110 164 vsl 40 40 0 127 0 1 empty empty BIAS1 0 -8 1 8 -258113
-1 -1 3300 1;
#X obj 158 164 vsl 32 32 0 127 0 1 empty empty CV1 0 -8 1 8 -75392
-4160 -1 3000 1;
#X obj 319 224 / 127;
#X msg 319 246 \$1 100;
#X obj 319 271 line~;
#X obj 423 105 inlet~;
#X obj 423 262 *~;
#X obj 524 198 / 127;
#X msg 524 220 \$1 100;
#X obj 524 245 line~;
#X obj 245 405 outlet~;
#X obj 608 42 inlet~;
#X obj 608 323 *~;
#X obj 110 226 vsl 40 40 0 127 0 1 empty empty BIAS2 0 -8 1 8 -262144
-1 -1 0 1;
#X obj 159 226 vsl 32 32 0 127 0 1 empty empty CV2 0 -8 1 8 -262144
-4160 -1 1000 1;
#X obj 682 205 / 127;
#X msg 682 227 \$1 100;
#X obj 682 252 line~;
#X obj 786 86 inlet~;
#X obj 786 243 *~;
#X obj 887 179 / 127;
#X msg 887 201 \$1 100;
#X obj 887 226 line~;
#X obj 608 401 outlet~;
#X obj 832 359 *~ 1;
#X obj 832 398 outlet~;
#X text 300 404 VCA 1 OUT;
#X text 666 401 VCA 2 OUT;
#X text 884 397 SUM OUT;
#X obj 106 106 cnv 15 10 10 empty empty IN-1 0 5 1 7 -228856 -66577
0;
#X obj 128 106 cnv 1 10 10 empty empty CV-1 0 5 1 7 -228856 -66577
0;
#X obj 158 106 cnv 1 10 10 empty empty IN-2 0 5 1 7 -228856 -66577
0;
#X obj 178 106 cnv 1 10 10 empty empty CV-2 0 5 1 7 -228856 -66577
0;
#X obj 83 372 cnv 1 10 10 empty empty CV-2 0 5 1 8 -228856 -66577 0
;
#X obj 107 285 cnv 10 10 10 empty empty OUT-1 0 5 1 7 -228856 -66577
0;
#X obj 178 285 cnv 10 10 10 empty empty SUM 0 5 1 7 -228856 -66577
0;
#X obj 141 285 cnv 10 10 10 empty empty OUT-2 0 5 1 7 -228856 -66577
0;
#X obj 167 409 cnv 10 10 10 empty empty OUT-1 0 5 1 8 -228856 -66577
0;
#X connect 1 0 2 0;
#X connect 2 0 13 0;
#X connect 2 0 27 0;
#X connect 3 0 5 0;
#X connect 4 0 10 0;
#X connect 5 0 6 0;
#X connect 6 0 7 0;
#X connect 7 0 2 1;
#X connect 8 0 9 0;
#X connect 9 0 2 1;
#X connect 10 0 11 0;
#X connect 11 0 12 0;
#X connect 12 0 9 1;
#X connect 14 0 15 0;
#X connect 15 0 26 0;
#X connect 15 0 27 0;
#X connect 16 0 18 0;
#X connect 17 0 23 0;
#X connect 18 0 19 0;
#X connect 19 0 20 0;
#X connect 20 0 15 1;
#X connect 21 0 22 0;
#X connect 22 0 15 1;
#X connect 23 0 24 0;
#X connect 24 0 25 0;
#X connect 25 0 22 1;
#X connect 27 0 28 0;
#X coords 0 -1 1 1 100 200 2 100 100;
#X restore 395 472 pd triple-vca;
#X obj 529 143 expr (15 + $f1*7.5);
#X connect 0 4 14 0;
#X connect 1 0 48 0;
#X connect 2 0 0 0;
#X connect 2 0 35 0;
#X connect 2 1 0 1;
#X connect 2 2 0 2;
#X connect 2 3 0 3;
#X connect 6 0 48 0;
#X connect 8 0 48 0;
#X connect 9 0 48 0;
#X connect 12 0 48 0;
#X connect 13 0 48 0;
#X connect 14 0 50 0;
#X connect 15 0 34 0;
#X connect 16 0 17 0;
#X connect 16 1 18 0;
#X connect 16 2 19 0;
#X connect 16 3 20 0;
#X connect 17 0 27 0;
#X connect 18 0 27 1;
#X connect 19 0 27 2;
#X connect 20 0 27 3;
#X connect 21 0 17 1;
#X connect 21 0 18 1;
#X connect 21 0 19 1;
#X connect 21 0 20 1;
#X connect 21 0 29 0;
#X connect 22 0 21 0;
#X connect 23 0 21 0;
#X connect 24 0 21 0;
#X connect 25 0 21 0;
#X connect 26 0 21 0;
#X connect 27 0 28 0;
#X connect 27 0 2 0;
#X connect 30 0 21 0;
#X connect 31 0 14 1;
#X connect 31 0 35 2;
#X connect 32 0 33 0;
#X connect 32 0 40 0;
#X connect 34 0 41 0;
#X connect 34 1 42 0;
#X connect 35 0 36 0;
#X connect 35 1 36 2;
#X connect 36 2 50 2;
#X connect 39 0 38 0;
#X connect 40 0 1 0;
#X connect 40 1 8 0;
#X connect 40 2 9 0;
#X connect 40 3 13 0;
#X connect 40 4 6 0;
#X connect 40 5 12 0;
#X connect 41 0 32 0;
#X connect 42 0 30 0;
#X connect 43 0 51 0;
#X connect 45 0 50 1;
#X connect 45 0 50 3;
#X connect 48 0 31 0;
#X connect 48 1 16 0;
#X connect 48 2 51 0;
#X connect 50 2 37 0;
#X connect 51 0 44 0;
#X connect 51 0 45 0;
#X connect 51 0 46 0;
#X coords 0 726 1 725 100 200 0;
